# xmcd
#
# Track frame offsets:
#	150
#	13932
#	28217
#	40992
#	55225
#	68202
#	82317
#	95382
#	110225
#	124302
#	135917
#	150342
#	162312
#	175292
#	189037
#	202685
#	216705
#
# Disc length: 3063 seconds
#
# Revision: 0
# Processed by: cddbd v1.5.2PL0 Copyright (c) Steve Scherf et al.
# Submitted via: EasyCDDAExtractor 16.0.6.1
#
DISCID=f10bf511
DTITLE=Συλλογικός δίσκος - Σπάνιες εκδόσεις 09-Ρεπάνης Αντώνης
DYEAR=1995
DGENRE=Λαϊκή
TTITLE0=Ρεπάνης Αντώνης - Απόψε γλυκειά μου θα φύγω [Ι. Γαβαλά-Α. Ρεπάνη]
TTITLE1=Γαβαλάς Πάνος - Σβήσαν τ' αστέρια [Α. Ρεπάνη-Π. Καμηλιέρη]
TTITLE2=Χρηστάκης - Το ταβερνάκι [Α. Ρεπάνη-Π. Καμηλιέρη]
TTITLE3=Ρεπάνης Αντώνης - Απόψε σε θυμήθηκα [Ι. Γαβαλά-Α. Ρεπάνη]
TTITLE4=Γαβαλάς Πάνος - Ξενητειά είσαι πλανεύτρα [Α. Ρεπάνη-Π. Καμηλιέρη]
TTITLE5=Ρεπάνης Αντώνης - Δεν σού ζήτησα λεπτά [Α. Ρεπάνη-Μ. Τουτουμτζή]
TTITLE6=Ρεπάνης Αντώνης - Πόσο υπέφερα [Α. Ρεπάνη-Π. Καμηλιέρη]
TTITLE7=Γαβαλάς Πάνος - Αγάπες χαμένες [Ι. Γαβαλά-Α. Ρεπάνη]
TTITLE8=Λαύκας Γιώργος - Η διπρόσωπη [Α. Ρεπάνη-Ευτ. Παπαγιαννοπούλου]
TTITLE9=Χρηστάκης - Μέσ' στην παλιά την Κοκκινιά [Α. Ρεπάνη-Π. Καμηλιέρη]
TTITLE10=Ρεπάνης Αντώνης - Μ' έδιωξες από κοντά σου [Α. Ρεπάνη-Ι. Γαβαλά]
TTITLE11=Γαβαλάς Πάνος - Ανάθεμα την μοίρα μου [Ι. Γαβαλά-Α. Ρεπάνη]
TTITLE12=Κούρτη Ρία - Δεν το περίμενα [Α. Ρεπάνη-Π. Καμηλιέρη]
TTITLE13=Γαβαλάς Πάνος - Μιά χαραυγή [Α. Ρεπάνη-Ι. Γαβαλά]
TTITLE14=Ρεπάνης Αντώνης - Γάμος γίνεται απόψε [Α. Ρεπάνη-Π. Καμηλιέρη]
TTITLE15=Ζακυνθηνάκης Ανδρέας - Δεν τα μπορώ τα φώτα της ημέρας [Ι. Γαβαλά-Α. 
TTITLE15=Ρεπάνη]
TTITLE16=Ταχτσόγλου Καλλιόπη - Απ' τον καιρό που σ' έχασα [Α. Ρεπάνη-Ν. Γκούμα
TTITLE16=]
EXTD=
EXTT0=
EXTT1=
EXTT2=
EXTT3=
EXTT4=
EXTT5=
EXTT6=
EXTT7=
EXTT8=
EXTT9=
EXTT10=
EXTT11=
EXTT12=
EXTT13=
EXTT14=
EXTT15=
EXTT16=
PLAYORDER=
